<svg xmlns="http://www.w3.org/2000/svg" width="512" height="512" viewBox="0 0 512 512" role="img" aria-label="Chipstrat / Compact circuit mark / Sea &amp; Poppy"><title>Chipstrat / Compact circuit mark / Sea &amp; Poppy</title><g transform="translate(61.44000 61.44000) scale(3.8912000)"><path d="M15 23V12H43V29M58 29V14M71 34L84 21V12M71 46H85.5M71 60H80L88 68M64 71V85.5M49 71V89M34 71L22 83H12M29 57H14M29 42H12" stroke="#285259" stroke-width="4.2" fill="none" stroke-linecap="round" stroke-linejoin="round"/><circle cx="58" cy="9" r="3.4" fill="none" stroke="#285259" stroke-width="2.8"/><circle cx="90" cy="46" r="3.4" fill="none" stroke="#285259" stroke-width="2.8"/><circle cx="64" cy="90" r="3.4" fill="none" stroke="#285259" stroke-width="2.8"/><circle cx="9" cy="57" r="3.4" fill="none" stroke="#285259" stroke-width="2.8"/><rect x="29" y="29" width="42" height="42" rx=".6" fill="none" stroke="#285259" stroke-width="3.8"/><path d="M62 38H38V62H62V55H45V45H62Z" fill="#B74330"/></g></svg>